<svg width="24" height="24" viewBox="0 0 24 24" fill="none" xmlns="http://www.w3.org/2000/svg">
<path d="M6.54552 20.3917C5.73444 21.2028 4.41939 21.2028 3.60831 20.3917C2.79723 19.5806 2.79723 18.2656 3.60831 17.4546L9.06275 12L3.60837 6.54546C2.79729 5.73435 2.79729 4.41952 3.60837 3.60841C4.41944 2.79731 5.7345 2.79731 6.54552 3.60841L12.0001 9.06269L17.4543 3.60841C18.2655 2.79731 19.5806 2.79731 20.3917 3.60841C21.2028 4.41952 21.2028 5.73463 20.3917 6.54546L14.9371 12L20.3917 17.4546C21.2028 18.2655 21.2028 19.5806 20.3917 20.3916C19.5806 21.2027 18.2655 21.2027 17.4543 20.3916L12.0001 14.9371L6.54552 20.3917Z" fill="white"/>
</svg>
