<svg width="29" height="24" viewBox="0 0 29 24" fill="none" xmlns="http://www.w3.org/2000/svg">
<path d="M2 3L20 3" stroke="white" stroke-width="1.5" stroke-linecap="round" stroke-linejoin="round"/>
<path d="M2 10L15 10" stroke="white" stroke-width="1.5" stroke-linecap="round" stroke-linejoin="round"/>
<path d="M2 17L9 17" stroke="white" stroke-width="1.5" stroke-linecap="round" stroke-linejoin="round"/>
<path d="M25.8066 15.0287C25.5857 15.8681 24.5417 16.4613 22.4536 17.6475C20.435 18.7943 19.4258 19.3677 18.6124 19.1372C18.2761 19.0419 17.9697 18.861 17.7227 18.6117C17.125 18.0087 17.125 16.8391 17.125 14.5C17.125 12.1609 17.125 10.9913 17.7227 10.3883C17.9697 10.139 18.2761 9.95805 18.6124 9.86276C19.4258 9.63228 20.435 10.2057 22.4536 11.3525C24.5417 12.5387 25.5857 13.1319 25.8066 13.9713C25.8978 14.3177 25.8978 14.6823 25.8066 15.0287Z" stroke="white" stroke-width="0.9375" stroke-linejoin="round"/>
</svg>
