<svg width="496" height="497" viewBox="0 0 496 497" fill="none" xmlns="http://www.w3.org/2000/svg">
<mask id="mask0_2401_170" style="mask-type:alpha" maskUnits="userSpaceOnUse" x="0" y="0" width="496" height="497">
<path d="M323.033 0.818359H172.94C123.163 0.818359 98.277 0.818359 71.486 9.28861C42.2325 19.9365 19.1933 42.9757 8.54551 72.2291C0.0751953 99.0201 0.0751953 123.91 0.0751953 173.683V323.776C0.0751953 373.553 0.0751953 398.435 8.54551 425.23C19.1933 454.483 42.2325 477.523 71.486 488.166C98.277 496.641 123.163 496.641 172.94 496.641H323.033C372.81 496.641 397.692 496.641 424.487 488.166C453.74 477.523 476.78 454.483 487.427 425.23C495.898 398.435 495.898 373.553 495.898 323.776V173.683C495.898 123.91 495.898 99.0201 487.427 72.2291C476.78 42.9757 453.74 19.9365 424.487 9.28861C397.692 0.818359 372.81 0.818359 323.033 0.818359Z" fill="black"/>
</mask>
<g mask="url(#mask0_2401_170)">
<path d="M322.065 -0.575195H171.971C122.194 -0.575195 97.3082 -0.575195 70.5173 7.89505C41.2638 18.543 18.2245 41.5821 7.57676 70.8356C-0.893555 97.6266 -0.893555 122.517 -0.893555 172.289V322.383C-0.893555 372.159 -0.893555 397.041 7.57676 423.836C18.2245 453.09 41.2638 476.129 70.5173 486.773C97.3082 495.247 122.194 495.247 171.971 495.247H322.065C371.841 495.247 396.723 495.247 423.518 486.773C452.772 476.129 475.811 453.09 486.459 423.836C494.929 397.041 494.929 372.159 494.929 322.383V172.289C494.929 122.517 494.929 97.6266 486.459 70.8356C475.811 41.5821 452.772 18.543 423.518 7.89505C396.723 -0.575195 371.841 -0.575195 322.065 -0.575195Z" fill="white"/>
<path d="M406.155 281.631C421.309 282.723 421.036 282.626 416.35 295.831C415.286 298.828 416.183 302.975 417.29 306.213C423.084 323.164 415.916 334.358 397.761 336.154C387.537 337.166 377.304 338.092 367.088 339.175C356.509 340.296 348.086 344.52 343.202 356.239C331.573 362.798 321.307 368.578 310.46 373.645C307.522 368.234 304.25 363.764 303.008 358.788C300.787 349.885 299.789 340.677 298.393 330.673C299.309 326.103 300.112 322.457 301.814 318.819C328.285 305.956 342.738 283.253 356.515 259.213C361.822 258.161 366.155 256.986 370.489 255.811C370.675 254.523 370.86 253.234 371.046 251.945C365.739 248.633 360.432 245.32 355.687 241.381C369.459 231.189 382.669 221.623 395.88 212.058C401.56 215.271 407.204 218.549 412.927 221.684C423.58 227.518 424.904 233.864 418.219 244.356C416.099 247.683 415.28 251.84 413.386 256.659C399.65 269.461 386.393 281.22 373.509 292.649C377.413 297.052 380.548 299.781 382.678 303.147C388.161 311.807 393.584 308.935 397.784 302.708C400.206 299.116 400.164 293.942 401.72 289.658C402.751 286.82 404.646 284.296 406.155 281.631Z" fill="#850477"/>
<path d="M102.902 289.396C100.362 282.097 96.6594 276.438 89.5299 271.885C75.1871 262.725 72.17 242.958 79.1629 221.395C80.8978 216.045 81.004 209.8 80.3786 204.129C79.1589 193.071 81.4487 183.7 90.2172 176.424C101.818 166.798 113.568 157.344 124.944 147.461C126.634 145.993 127.482 142.498 127.26 140.074C126.432 131.001 130.032 124.968 140.586 120.836C151.764 137.557 163.313 154.835 175.84 173.412C180.743 182.221 184.67 189.73 187.638 197.426C183.583 202.65 181.003 208.114 177.28 212.637C169.373 222.244 161.307 231.823 152.298 240.348C150.13 242.398 143.652 241.181 139.929 239.623C138.568 239.053 139.046 233.085 139.398 229.653C140.022 223.561 141.19 217.524 142.445 209.441C137.776 211.107 135.548 211.195 134.988 212.206C123.399 233.128 106.622 251.846 107.447 278.104C107.564 281.817 104.496 285.63 102.902 289.396Z" fill="#0C0620"/>
<path d="M102.944 290.247C104.495 285.63 107.563 281.817 107.446 278.105C106.622 251.846 123.398 233.128 134.987 212.206C135.547 211.195 137.775 211.107 142.444 209.441C141.189 217.524 140.021 223.561 139.397 229.653C139.045 233.085 138.568 239.053 139.928 239.623C143.651 241.181 150.13 242.398 152.297 240.348C161.306 231.823 169.372 222.244 177.279 212.637C181.002 208.114 183.582 202.651 188.135 198.032C191.342 202.868 193.094 207.284 194.459 212.552C189.654 223.676 185.237 233.949 179.701 246.822C188.471 247.934 195.386 248.811 202.823 250.341C206.14 256.335 208.935 261.676 211.729 267.017C218.885 273.311 226.04 279.604 233.424 287.265C231.217 296.214 228.782 303.796 225.881 311.566C225.414 311.754 224.456 312.065 223.504 311.844C214.06 308.834 201.386 310.759 206.244 291.127C198.453 296.065 193.958 298.914 188.779 302.147C185.261 304.815 182.427 307.099 178.638 309.35C173.991 307.893 169.745 307.203 166.701 304.915C154.142 295.477 142.42 296.047 130.963 306.902C127.182 310.484 122.745 313.375 118.609 316.582C113.401 308.088 108.194 299.593 102.944 290.247Z" fill="#1A227F"/>
<path d="M311.042 374.358C321.307 368.578 331.573 362.798 342.731 356.962C342.926 383.292 327.801 403.97 314.622 424.771C310.661 431.022 298.156 432.17 289.331 434.896C285.141 436.19 280.399 435.699 274.268 435.322C265.071 427.634 257.513 420.64 249.956 413.647C251.615 415.757 253.273 417.868 254.932 419.978C246.525 425.09 238.118 430.202 229.711 435.313C221.555 433.638 213.4 431.962 205.14 428.897C226.305 424.92 236.042 410.228 243.16 391.826C245.561 391.617 247.166 391.531 249.462 391.991C253.354 391.69 256.76 391.287 259.719 389.92C273.995 383.326 286.88 371.163 304.786 379.628C305.811 380.113 308.909 376.216 311.042 374.358Z" fill="#1A227F"/>
<path d="M335.987 117.97C345.566 126.913 355.461 135.554 364.491 145.02C366.634 147.266 365.878 152.278 365.235 157.035C354.893 162.428 345.858 166.995 336.627 171.122C327.46 175.22 318.095 178.875 307.971 182.359C291.54 176.225 276.589 167.884 258.792 169.307C256.376 166.081 253.496 163.98 252.182 161.151C250.278 157.053 249.506 152.428 248.252 148.028C252.258 147.09 256.259 145.369 260.272 145.34C288.786 145.13 313.926 135.883 335.987 117.97Z" fill="#1A227F"/>
<path d="M335.396 117.351C313.925 135.883 288.785 145.13 260.271 145.34C256.258 145.369 252.258 147.09 248.251 148.028C249.506 152.428 250.277 157.053 252.181 161.151C253.496 163.98 256.376 166.081 257.939 169.405C255.328 171.177 253.334 172.053 250.541 172.713C246.214 169.718 242.688 166.938 239.161 164.158C234.206 158.973 229.25 153.787 223.179 147.552C220.252 144.534 218.44 142.565 216.627 140.597C215.925 139.394 215.224 138.19 214.968 135.592C216.698 127.947 217.981 121.698 219.951 115.429C221.75 114.693 222.863 113.977 224.862 113.27C226.932 113.273 228.114 113.266 229.878 113.822C234.116 113.126 237.773 111.868 242.418 110.674C248.61 111.571 253.815 112.404 259.444 113.766C261.12 114.746 262.37 115.197 264.391 116.267C279.661 119.206 294.262 125.186 309.378 115.69C312.983 113.271 315.65 110.861 319.225 108.38C323.068 107.555 326.002 106.801 328.936 106.048C330.893 109.609 332.85 113.17 335.396 117.351Z" fill="#452080"/>
<path d="M355.543 259.091C342.739 283.253 328.286 305.956 301.845 317.977C299.37 315.104 297.628 311.258 296.185 311.367C289.605 311.864 283.059 313.25 276.599 314.743C269.618 316.356 262.693 318.27 255.845 320.385C251.598 321.698 247.541 323.628 243.398 325.28C242.736 320.759 242.073 316.238 241.8 311.008C244.464 306.659 246.738 303.019 250.132 299.347C267.29 298.949 284.257 303.16 298.347 292.088C305.691 286.318 313.706 279.914 317.782 271.938C321.106 265.432 317.974 255.94 319.628 248.182C321.498 239.414 318.717 233.975 311.6 229.772C309.443 222.974 307.285 216.175 305.616 208.694C307.735 208.619 309.367 209.226 311.655 210.294C315.9 216.687 314.985 224.945 323.762 228.318C330.453 230.89 334.981 236.513 330.025 244.859C329.785 245.263 333.702 248.136 335.387 250.616C337.006 262.542 345.503 254.908 351.334 256.969C353.186 257.776 354.365 258.434 355.543 259.091Z" fill="#3F145A"/>
<path d="M308.439 115.698C294.262 125.186 279.661 119.206 265.074 115.709C268.812 111.348 272.637 108.163 276.461 104.978C275.029 103.395 273.596 101.812 272.164 100.229C267.782 104.565 263.401 108.901 259.019 113.237C253.814 112.404 248.61 111.571 242.232 109.924C234.358 102.614 232.381 109.507 229.297 113.26C228.114 113.266 226.932 113.273 224.442 112.826C221.845 113.398 220.555 114.424 219.265 115.449C217.981 121.698 216.698 127.947 214.765 134.913C211.015 131.988 207.913 128.346 204.921 123.039C206.146 111.629 208.044 101.896 217.733 97.094C225.941 93.0255 234.597 89.0375 243.497 87.3548C263.49 83.5747 283.758 81.2486 303.914 78.3306C318.301 81.5162 327.882 89.4184 329.402 105.411C326.002 106.801 323.068 107.555 318.195 108.38C304.518 109.706 292.779 110.959 281.04 112.213C281.058 113.374 281.075 114.536 281.093 115.698C290.208 115.698 299.324 115.698 308.439 115.698Z" fill="#210D51"/>
<path d="M303.861 77.3818C283.759 81.2487 263.491 83.5749 243.498 87.3549C234.598 89.0376 225.942 93.0257 217.734 97.0941C208.045 101.896 206.147 111.629 204.658 122.277C196.826 112.926 189.367 102.671 181.229 91.4833C191.673 79.147 204.956 72.1623 219.616 67.6998C246.995 59.3661 274.021 61.1047 300.42 72.0133C301.905 72.6267 302.695 74.9209 303.861 77.3818Z" fill="#0C0620"/>
<path d="M194.206 383.6C192.011 382.113 188.17 379.048 187.861 379.37C179.967 387.606 171.751 381.624 162.972 378.696C166.776 364.919 165.602 348.545 185.295 347.671C188.34 347.535 191.541 342.691 194 339.507C197.766 334.628 200.813 329.202 204.41 324.183C211.272 314.608 214.309 314.631 221.568 324.752C221.437 326.005 221.341 326.501 220.504 327.315C207.192 335.658 209.623 349.706 202.977 363.102C215.345 357.64 222.433 352.271 222.86 341.441C227.352 350.063 235.151 358.02 228.134 367.629C222.614 375.186 215.748 381.76 208.585 388.746C204.156 389.343 200.622 389.964 197.458 390.521C196.193 387.829 195.2 385.715 194.206 383.6Z" fill="#1A227F"/>
<path d="M209.481 388.771C215.748 381.76 222.614 375.186 228.134 367.628C235.151 358.02 227.352 350.063 222.74 340.442C221.629 335.054 221.437 331.025 221.245 326.997C221.341 326.501 221.437 326.005 221.682 324.017C222.535 321.256 223.24 319.988 224.625 319.317C229.975 329.524 237.549 332.843 248.124 331.84C253.164 331.362 258.437 333.337 263.68 335.227C263.776 345.429 265.744 355.163 263.309 363.63C260.476 373.481 253.787 382.222 248.771 391.445C247.166 391.531 245.562 391.617 242.885 390.869C240.779 386.006 239.744 381.977 238.04 375.339C233.65 380.773 231.493 384.228 228.603 386.886C215.182 399.233 201.557 411.359 188.005 423.564C188.005 423.564 188.118 424.184 187.73 423.302C191.939 415.928 196.674 409.529 201.082 402.912C204.117 398.355 206.697 393.495 209.481 388.771ZM240.775 353.188C240.522 358.857 240.27 364.526 240.017 370.196C241.415 370.33 242.813 370.464 244.211 370.599C246.955 363.805 249.699 357.01 252.442 350.216C251.74 349.32 251.038 348.423 250.336 347.527C247.42 348.864 244.504 350.201 240.775 353.188Z" fill="#684AAC"/>
<path d="M395.394 211.368C382.67 221.624 369.46 231.189 354.954 241.325C352.672 241.89 351.685 241.886 350.68 240.885C348.646 227.722 349.059 214.15 333.648 209.144C338.111 204.657 341.803 200.219 346.477 197.42C354.15 192.823 362.461 189.29 371.251 185.086C373.028 184.713 374.056 184.562 375.893 184.54C377.247 184.669 377.792 184.67 378.338 184.671C378.722 196.615 386.1 204.103 395.394 211.368Z" fill="#1A227F"/>
<path d="M223.943 318.72C223.239 319.989 222.534 321.257 221.716 323.26C214.308 314.631 211.271 314.608 204.409 324.183C200.812 329.202 197.765 334.628 193.999 339.507C191.54 342.691 188.339 347.535 185.294 347.671C165.601 348.545 166.775 364.919 162.238 378.117C155.646 370.502 149.066 361.887 143.493 352.326C166.496 340.407 183.868 324.132 202.097 303.91C195.476 302.785 192.469 302.274 189.462 301.763C193.957 298.914 198.452 296.065 206.243 291.127C201.386 310.759 214.06 308.834 223.433 312.672C224.191 315.387 224.067 317.054 223.943 318.72Z" fill="#3F145A"/>
<path d="M118.479 317.467C122.746 313.375 127.182 310.484 130.963 306.901C142.421 296.047 154.143 295.476 166.701 304.915C169.745 307.203 173.991 307.892 178.218 310.064C164.192 321.923 149.632 333.034 135.073 344.146C129.499 335.548 123.924 326.951 118.479 317.467Z" fill="#3F145A"/>
<path d="M311.457 230.855C318.716 233.975 321.497 239.415 319.627 248.183C317.973 255.941 321.105 265.432 317.781 271.939C313.705 279.915 305.69 286.318 298.346 292.089C284.256 303.161 267.288 298.95 250.444 298.632C250.945 295.735 252.252 293.522 253.56 291.31C291.828 287.171 310.116 268.371 311.457 230.855Z" fill="#210D51"/>
<path d="M188.49 424.419C201.557 411.359 215.182 399.233 228.603 386.887C231.493 384.228 233.65 380.773 238.04 375.34C239.744 381.977 240.779 386.006 242.089 390.993C236.043 410.228 226.306 424.921 204.439 428.307C198.885 427.829 193.93 426.551 188.49 424.419Z" fill="#55288E"/>
<path d="M406.262 281.468C404.367 284.815 402.75 286.82 401.72 289.658C400.164 293.942 400.206 299.116 397.783 302.708C393.584 308.936 388.16 311.807 382.678 303.147C380.548 299.781 377.413 297.052 373.508 292.649C386.393 281.22 399.649 269.461 413.655 257.468C416.065 260.387 417.726 263.539 419.078 266.104C415.025 270.828 410.696 276.066 406.262 281.468Z" fill="#452080"/>
<path d="M135.475 344.792C149.632 333.035 164.192 321.923 179.172 310.097C182.427 307.099 185.261 304.815 188.779 302.147C192.469 302.274 195.476 302.785 202.097 303.91C183.869 324.132 166.496 340.407 143.622 351.438C140.456 349.477 138.167 347.458 135.475 344.792Z" fill="#452080"/>
<path d="M251.341 172.928C253.334 172.053 255.328 171.177 258.174 170.204C276.588 167.884 291.539 176.225 307.858 183.177C308.599 185.46 308.607 186.56 308.725 188.427C309.899 191.212 310.964 193.23 311.972 195.14C308.157 197.844 304.731 200.273 301.304 202.702C291.857 196.112 282.41 189.521 271.198 182.672C267.597 182.231 265.81 181.603 263.973 181.422C263.973 181.422 263.374 181.322 263.153 181.149C261.442 180.107 260.879 180.149 259.324 179.782C259.324 179.782 259.324 179.782 258.658 179.448C256.891 178.277 255.396 177.822 253.901 177.367C253.901 177.367 253.907 177.755 253.839 177.063C253.026 175.828 252.281 175.284 251.537 174.741C251.537 174.741 251.835 175.118 251.796 174.495C251.758 173.872 251.341 172.928 251.341 172.928Z" fill="#3F145A"/>
<path d="M308.617 187.661C308.608 186.56 308.599 185.46 308.704 183.542C318.095 178.875 327.46 175.22 336.627 171.122C345.858 166.995 354.893 162.428 364.886 157.822C368.834 159.748 371.909 161.907 374.437 165.298C359.555 172.496 345.221 178.461 329.888 184.685C322.132 185.849 315.374 186.755 308.617 187.661Z" fill="#776AC6"/>
<path d="M230.682 435.524C238.119 430.202 246.526 425.09 254.933 419.978C253.274 417.868 251.615 415.757 249.957 413.646C257.514 420.64 265.071 427.634 273.167 435.247C259.688 435.822 245.67 435.778 230.682 435.524Z" fill="#9154AD"/>
<path d="M208.586 388.746C206.698 393.495 204.118 398.355 201.082 402.912C196.675 409.53 191.939 415.928 187.425 423.378C183.323 423.062 179.139 421.788 176.041 420.844C181.816 408.113 187.261 396.111 193.456 383.854C195.2 385.714 196.194 387.829 197.458 390.521C200.623 389.964 204.156 389.343 208.586 388.746Z" fill="#55288E"/>
<path d="M252.806 290.909C252.253 293.522 250.945 295.734 249.324 298.663C246.737 303.02 244.463 306.66 240.944 311.144C235.248 311.786 230.798 311.582 226.348 311.378C228.782 303.796 231.217 296.214 234.071 287.829C240.344 288.187 246.198 289.348 252.806 290.909Z" fill="#452080"/>
<path d="M330.886 184.427C345.22 178.461 359.555 172.495 374.645 166.155C376.542 169.689 377.682 173.598 377.273 177.937C360.437 174.704 348.568 179.58 339.217 192.83C333.655 196.28 328.864 199.569 323.821 202.098C322.594 200.109 321.618 198.88 321.108 196.97C324.677 192.336 327.782 188.381 330.886 184.427Z" fill="#684AAC"/>
<path d="M329.888 184.684C327.782 188.38 324.678 192.335 320.442 197.367C316.54 202.241 313.77 206.037 310.999 209.833C309.367 209.226 307.735 208.618 305.26 207.777C303.44 206.316 302.462 205.091 301.394 203.283C304.731 200.272 308.158 197.843 311.973 195.139C310.965 193.229 309.9 191.211 308.725 188.426C315.374 186.754 322.132 185.848 329.888 184.684Z" fill="#452080"/>
<path d="M339.987 192.669C348.568 179.58 360.437 174.704 376.654 178.509C377.586 178.651 377.775 179.418 377.785 180.445C377.887 181.889 377.978 182.305 378.069 182.721C378.069 182.721 378.037 182.767 377.505 182.976C376.283 183.5 375.653 183.909 375.084 184.411C374.056 184.562 373.027 184.713 370.601 184.656C359.465 187.188 349.726 189.928 339.987 192.669Z" fill="#850477"/>
<path d="M250.541 172.713C251.341 172.928 251.758 173.872 251.979 174.338C247.87 171.906 243.539 169.007 239.185 165.133C242.688 166.937 246.214 169.717 250.541 172.713Z" fill="#F0EEF1"/>
<path d="M216.086 141.144C218.44 142.565 220.253 144.533 222.514 147.178C220.491 145.799 218.018 143.745 216.086 141.144Z" fill="#F0EEF1"/>
<path d="M378.412 182.493C377.977 182.305 377.886 181.889 377.849 180.835C378.187 180.886 378.471 181.576 378.412 182.493Z" fill="#9154AD"/>
<path d="M390.309 192.613C389.954 193.099 389.599 193.584 389.244 194.07C389.321 193.616 389.399 193.161 389.927 192.685C390.377 192.663 390.309 192.613 390.309 192.613Z" fill="#776AC6"/>
<path d="M390.406 192.695C390.434 192.728 390.795 191.631 390.795 191.631C390.795 191.631 390.858 192.355 390.583 192.483C390.309 192.612 390.377 192.663 390.406 192.695Z" fill="#776AC6"/>
<path d="M375.893 184.54C375.654 183.91 376.283 183.5 377.51 183.003C378.047 182.823 378.45 183.713 378.394 184.192C377.793 184.671 377.247 184.67 375.893 184.54Z" fill="#9154AD"/>
<path d="M249.464 391.991C253.788 382.222 260.477 373.481 263.31 363.63C265.745 355.162 263.777 345.428 264.44 334.595C270.595 333 276.076 333.291 281.536 333.068C287.128 332.84 292.7 332.108 298.281 331.597C299.79 340.677 300.788 349.885 303.01 358.788C304.251 363.764 307.523 368.234 310.462 373.645C308.91 376.216 305.813 380.113 304.787 379.628C286.881 371.163 273.997 383.325 259.721 389.92C256.761 391.287 253.356 391.689 249.464 391.991Z" fill="#9154AD"/>
<path d="M298.395 330.674C292.701 332.109 287.129 332.841 281.537 333.069C276.077 333.292 270.596 333.001 264.365 333.569C258.438 333.338 253.166 331.363 248.125 331.841C237.55 332.844 229.976 329.524 224.626 319.318C224.069 317.055 224.193 315.388 224.388 312.893C224.459 312.066 225.417 311.755 225.883 311.567C230.8 311.583 235.25 311.787 240.556 311.854C242.074 316.239 242.737 320.76 243.4 325.281C247.542 323.629 251.599 321.699 255.847 320.387C262.694 318.271 269.619 316.357 276.6 314.744C283.06 313.251 289.607 311.866 296.186 311.368C297.629 311.259 299.371 315.105 300.946 317.971C300.114 322.458 299.311 326.104 298.395 330.674Z" fill="#55288E"/>
<path d="M350.699 241.881C351.686 241.886 352.673 241.89 354.394 241.951C360.434 245.32 365.741 248.633 371.048 251.946C370.862 253.234 370.677 254.523 370.491 255.812C366.157 256.986 361.824 258.161 356.517 259.214C354.365 258.434 353.187 257.777 351.337 255.94C350.597 251.287 350.529 247.813 350.521 243.725C350.582 243.111 350.699 241.881 350.699 241.881Z" fill="#55288E"/>
<path d="M194.46 212.552C197.341 223.636 199.836 235.571 202.316 248.597C195.387 248.811 188.472 247.934 179.702 246.822C185.238 233.949 189.655 223.676 194.46 212.552Z" fill="#3F145A"/>
<path d="M309.378 115.689C299.324 115.698 290.209 115.698 281.094 115.698C281.076 114.536 281.058 113.374 281.041 112.212C292.78 110.959 304.519 109.706 317.287 108.452C315.65 110.861 312.983 113.271 309.378 115.689Z" fill="#3F145A"/>
<path d="M259.445 113.766C263.402 108.901 267.784 104.565 272.165 100.229C273.598 101.812 275.03 103.395 276.463 104.978C272.638 108.163 268.813 111.348 264.305 115.09C262.372 115.197 261.121 114.746 259.445 113.766Z" fill="#3F145A"/>
<path d="M229.879 113.822C232.382 109.507 234.359 102.614 241.246 109.86C237.774 111.868 234.117 113.126 229.879 113.822Z" fill="#3F145A"/>
<path d="M219.952 115.429C220.555 114.424 221.845 113.399 223.556 112.817C222.863 113.976 221.751 114.693 219.952 115.429Z" fill="#3F145A"/>
<path d="M311.655 210.295C313.77 206.038 316.541 202.242 319.978 198.048C321.619 198.88 322.595 200.109 323.801 202.902C326.281 207.154 328.531 209.842 330.796 213.441C333.747 220.831 336.577 227.362 339.663 233.769C341.482 237.546 343.707 241.128 345.208 245.405C341.672 247.295 338.678 248.578 335.683 249.861C333.702 248.137 329.785 245.264 330.026 244.859C334.981 236.514 330.454 230.89 323.763 228.319C314.986 224.946 315.901 216.688 311.655 210.295Z" fill="#55288E"/>
<path d="M335.387 250.617C338.678 248.578 341.672 247.296 345.995 245.341C348.369 244.559 349.415 244.45 350.461 244.34C350.529 247.814 350.597 251.287 350.662 255.791C345.503 254.909 337.006 262.543 335.387 250.617Z" fill="#452080"/>
<path d="M220.505 327.314C221.438 331.025 221.63 335.054 221.942 340.081C222.433 352.271 215.345 357.639 202.978 363.102C209.623 349.706 207.193 335.657 220.505 327.314Z" fill="#3F145A"/>
<path d="M241.181 352.364C244.504 350.201 247.42 348.864 250.336 347.527C251.038 348.424 251.74 349.32 252.443 350.217C249.699 357.011 246.955 363.805 244.211 370.599C242.813 370.465 241.415 370.331 240.018 370.196C240.27 364.527 240.522 358.858 241.181 352.364Z" fill="#776AC6"/>
<path d="M350.52 243.725C349.414 244.449 348.368 244.558 346.535 244.732C343.706 241.127 341.481 237.545 339.662 233.768C336.576 227.361 333.746 220.83 331.305 213.098C332.443 211.314 332.949 210.675 333.319 209.929C349.059 214.15 348.646 227.722 350.68 240.885C350.698 241.881 350.58 243.11 350.52 243.725Z" fill="#684AAC"/>
<path d="M333.648 209.144C332.949 210.676 332.443 211.314 331.29 212.187C328.53 209.842 326.28 207.154 324.051 203.662C328.864 199.569 333.655 196.28 339.216 192.83C349.726 189.928 359.464 187.188 369.853 184.878C362.46 189.29 354.15 192.824 346.477 197.42C341.803 200.219 338.11 204.657 333.648 209.144Z" fill="#9154AD"/>
</g>
</svg>
